<svg xmlns="http://www.w3.org/2000/svg" xmlns:xlink="http://www.w3.org/1999/xlink" width="500" zoomAndPan="magnify" viewBox="0 0 375 374.999991" height="500" preserveAspectRatio="xMidYMid meet" version="1.0"><defs><g/><clipPath id="03282d6ce3"><path d="M 0 175.144531 L 375 175.144531 L 375 199.855469 L 0 199.855469 Z M 0 175.144531 " clip-rule="nonzero"/></clipPath></defs><g fill="#304945" fill-opacity="1"><g transform="translate(97.195311, 225.107827)"><g><path d="M 8.796875 0 L 8.796875 -77 L 16.28125 -77 L 16.28125 -40.265625 L 42.796875 -77 L 51.375 -77 L 24.421875 -40.8125 L 56.65625 0 L 48.0625 0 L 16.28125 -40.265625 L 16.28125 0 Z M 8.796875 0 "/></g></g></g><g fill="#304945" fill-opacity="1"><g transform="translate(158.240976, 225.107827)"><g><path d="M 8.796875 0 L 8.796875 -77 L 24.75 -77 C 33.769531 -77 40.296875 -75.566406 44.328125 -72.703125 C 49.023438 -69.410156 51.375 -63.765625 51.375 -55.765625 C 51.375 -42.421875 46.238281 -34.28125 35.96875 -31.34375 C 32.664062 -30.394531 28.925781 -29.921875 24.75 -29.921875 L 16.28125 -29.921875 L 16.28125 0 Z M 16.28125 -70.953125 L 16.28125 -35.96875 L 24.203125 -35.96875 C 30.796875 -35.96875 35.722656 -37.414062 38.984375 -40.3125 C 42.253906 -43.207031 43.890625 -47.9375 43.890625 -54.5 C 43.890625 -61.0625 42.253906 -65.441406 38.984375 -67.640625 C 35.722656 -69.847656 30.796875 -70.953125 24.203125 -70.953125 Z M 16.28125 -70.953125 "/></g></g></g><g fill="#304945" fill-opacity="1"><g transform="translate(216.756822, 225.107827)"><g><path d="M 8.796875 0 L 8.796875 -77 L 16.28125 -77 L 16.28125 -40.265625 L 42.796875 -77 L 51.375 -77 L 24.421875 -40.8125 L 56.65625 0 L 48.0625 0 L 16.28125 -40.265625 L 16.28125 0 Z M 8.796875 0 "/></g></g></g><g clip-path="url(#03282d6ce3)"><path fill="#ffffff" d="M 0 175.144531 L 375.011719 175.144531 L 375.011719 199.855469 L 0 199.855469 Z M 0 175.144531 " fill-opacity="1" fill-rule="nonzero"/></g><g fill="#304945" fill-opacity="1"><g transform="translate(97.411726, 191.27555)"><g><path d="M 6.859375 -5 C 6.753906 -5.414062 6.5625 -5.75 6.28125 -6 C 6.007812 -6.25 5.695312 -6.425781 5.34375 -6.53125 C 5 -6.632812 4.660156 -6.6875 4.328125 -6.6875 C 3.804688 -6.6875 3.34375 -6.5625 2.9375 -6.3125 C 2.53125 -6.070312 2.203125 -5.734375 1.953125 -5.296875 C 1.710938 -4.867188 1.59375 -4.382812 1.59375 -3.84375 C 1.59375 -3.289062 1.710938 -2.796875 1.953125 -2.359375 C 2.203125 -1.921875 2.53125 -1.578125 2.9375 -1.328125 C 3.34375 -1.078125 3.804688 -0.953125 4.328125 -0.953125 C 4.648438 -0.953125 4.96875 -1.007812 5.28125 -1.125 C 5.601562 -1.25 5.894531 -1.4375 6.15625 -1.6875 C 6.425781 -1.9375 6.632812 -2.25 6.78125 -2.625 L 3.890625 -2.625 L 3.890625 -3.765625 L 8.125 -3.765625 C 8.09375 -3.429688 8.0625 -3.148438 8.03125 -2.921875 C 8 -2.703125 7.953125 -2.523438 7.890625 -2.390625 L 7.890625 -2.40625 C 7.722656 -1.90625 7.445312 -1.460938 7.0625 -1.078125 C 6.675781 -0.703125 6.238281 -0.40625 5.75 -0.1875 C 5.269531 0.0195312 4.796875 0.125 4.328125 0.125 C 3.773438 0.125 3.265625 0.03125 2.796875 -0.15625 C 2.328125 -0.351562 1.914062 -0.628906 1.5625 -0.984375 C 1.21875 -1.335938 0.945312 -1.753906 0.75 -2.234375 C 0.5625 -2.722656 0.46875 -3.257812 0.46875 -3.84375 C 0.46875 -4.414062 0.566406 -4.945312 0.765625 -5.4375 C 0.960938 -5.925781 1.234375 -6.347656 1.578125 -6.703125 C 1.929688 -7.054688 2.34375 -7.332031 2.8125 -7.53125 C 3.28125 -7.726562 3.785156 -7.828125 4.328125 -7.828125 C 4.703125 -7.828125 5.085938 -7.773438 5.484375 -7.671875 C 5.878906 -7.578125 6.25 -7.414062 6.59375 -7.1875 C 6.945312 -6.96875 7.253906 -6.675781 7.515625 -6.3125 C 7.773438 -5.957031 7.957031 -5.519531 8.0625 -5 Z M 6.859375 -5 "/></g></g></g><g fill="#304945" fill-opacity="1"><g transform="translate(114.9066, 191.27555)"><g><path d="M 0.390625 -3.84375 C 0.390625 -4.40625 0.488281 -4.925781 0.6875 -5.40625 C 0.894531 -5.894531 1.179688 -6.320312 1.546875 -6.6875 C 1.910156 -7.050781 2.332031 -7.335938 2.8125 -7.546875 C 3.300781 -7.753906 3.820312 -7.859375 4.375 -7.859375 C 4.9375 -7.859375 5.457031 -7.753906 5.9375 -7.546875 C 6.425781 -7.335938 6.851562 -7.050781 7.21875 -6.6875 C 7.582031 -6.320312 7.863281 -5.894531 8.0625 -5.40625 C 8.269531 -4.925781 8.375 -4.40625 8.375 -3.84375 C 8.375 -3.289062 8.269531 -2.773438 8.0625 -2.296875 C 7.863281 -1.816406 7.582031 -1.390625 7.21875 -1.015625 C 6.851562 -0.648438 6.425781 -0.363281 5.9375 -0.15625 C 5.457031 0.0390625 4.9375 0.140625 4.375 0.140625 C 3.820312 0.140625 3.300781 0.0390625 2.8125 -0.15625 C 2.332031 -0.363281 1.910156 -0.648438 1.546875 -1.015625 C 1.179688 -1.390625 0.894531 -1.816406 0.6875 -2.296875 C 0.488281 -2.773438 0.390625 -3.289062 0.390625 -3.84375 Z M 1.53125 -3.84375 C 1.53125 -3.320312 1.65625 -2.84375 1.90625 -2.40625 C 2.164062 -1.976562 2.507812 -1.632812 2.9375 -1.375 C 3.375 -1.125 3.851562 -1 4.375 -1 C 4.90625 -1 5.382812 -1.125 5.8125 -1.375 C 6.25 -1.632812 6.59375 -1.976562 6.84375 -2.40625 C 7.101562 -2.84375 7.234375 -3.320312 7.234375 -3.84375 C 7.234375 -4.375 7.101562 -4.851562 6.84375 -5.28125 C 6.59375 -5.71875 6.25 -6.0625 5.8125 -6.3125 C 5.382812 -6.570312 4.90625 -6.703125 4.375 -6.703125 C 3.851562 -6.703125 3.375 -6.570312 2.9375 -6.3125 C 2.507812 -6.0625 2.164062 -5.71875 1.90625 -5.28125 C 1.65625 -4.851562 1.53125 -4.375 1.53125 -3.84375 Z M 1.53125 -3.84375 "/></g></g></g><g fill="#304945" fill-opacity="1"><g transform="translate(132.544375, 191.27555)"><g><path d="M 3.703125 -7.765625 C 4.335938 -7.765625 4.890625 -7.648438 5.359375 -7.421875 C 5.835938 -7.203125 6.234375 -6.90625 6.546875 -6.53125 C 6.859375 -6.15625 7.09375 -5.734375 7.25 -5.265625 C 7.40625 -4.796875 7.484375 -4.320312 7.484375 -3.84375 C 7.484375 -3.351562 7.40625 -2.878906 7.25 -2.421875 C 7.09375 -1.972656 6.859375 -1.566406 6.546875 -1.203125 C 6.234375 -0.835938 5.835938 -0.546875 5.359375 -0.328125 C 4.890625 -0.109375 4.335938 0 3.703125 0 L 0.953125 0 L 0.953125 -7.765625 Z M 3.703125 -1.109375 C 4.296875 -1.109375 4.789062 -1.238281 5.1875 -1.5 C 5.59375 -1.769531 5.894531 -2.113281 6.09375 -2.53125 C 6.289062 -2.945312 6.390625 -3.382812 6.390625 -3.84375 C 6.390625 -4.1875 6.332031 -4.519531 6.21875 -4.84375 C 6.101562 -5.175781 5.929688 -5.476562 5.703125 -5.75 C 5.484375 -6.03125 5.207031 -6.25 4.875 -6.40625 C 4.539062 -6.570312 4.148438 -6.65625 3.703125 -6.65625 L 2.0625 -6.65625 L 2.0625 -1.109375 Z M 3.703125 -1.109375 "/></g></g></g><g fill="#304945" fill-opacity="1"><g transform="translate(149.313762, 191.27555)"><g/></g></g><g fill="#304945" fill-opacity="1"><g transform="translate(160.850842, 191.27555)"><g><path d="M 0.390625 -3.84375 C 0.390625 -4.40625 0.488281 -4.925781 0.6875 -5.40625 C 0.894531 -5.894531 1.179688 -6.320312 1.546875 -6.6875 C 1.910156 -7.050781 2.332031 -7.335938 2.8125 -7.546875 C 3.300781 -7.753906 3.820312 -7.859375 4.375 -7.859375 C 4.9375 -7.859375 5.457031 -7.753906 5.9375 -7.546875 C 6.425781 -7.335938 6.851562 -7.050781 7.21875 -6.6875 C 7.582031 -6.320312 7.863281 -5.894531 8.0625 -5.40625 C 8.269531 -4.925781 8.375 -4.40625 8.375 -3.84375 C 8.375 -3.289062 8.269531 -2.773438 8.0625 -2.296875 C 7.863281 -1.816406 7.582031 -1.390625 7.21875 -1.015625 C 6.851562 -0.648438 6.425781 -0.363281 5.9375 -0.15625 C 5.457031 0.0390625 4.9375 0.140625 4.375 0.140625 C 3.820312 0.140625 3.300781 0.0390625 2.8125 -0.15625 C 2.332031 -0.363281 1.910156 -0.648438 1.546875 -1.015625 C 1.179688 -1.390625 0.894531 -1.816406 0.6875 -2.296875 C 0.488281 -2.773438 0.390625 -3.289062 0.390625 -3.84375 Z M 1.53125 -3.84375 C 1.53125 -3.320312 1.65625 -2.84375 1.90625 -2.40625 C 2.164062 -1.976562 2.507812 -1.632812 2.9375 -1.375 C 3.375 -1.125 3.851562 -1 4.375 -1 C 4.90625 -1 5.382812 -1.125 5.8125 -1.375 C 6.25 -1.632812 6.59375 -1.976562 6.84375 -2.40625 C 7.101562 -2.84375 7.234375 -3.320312 7.234375 -3.84375 C 7.234375 -4.375 7.101562 -4.851562 6.84375 -5.28125 C 6.59375 -5.71875 6.25 -6.0625 5.8125 -6.3125 C 5.382812 -6.570312 4.90625 -6.703125 4.375 -6.703125 C 3.851562 -6.703125 3.375 -6.570312 2.9375 -6.3125 C 2.507812 -6.0625 2.164062 -5.71875 1.90625 -5.28125 C 1.65625 -4.851562 1.53125 -4.375 1.53125 -3.84375 Z M 1.53125 -3.84375 "/></g></g></g><g fill="#304945" fill-opacity="1"><g transform="translate(178.488618, 191.27555)"><g><path d="M 0.953125 0 L 0.953125 -7.765625 L 5.53125 -7.765625 L 5.53125 -6.6875 L 2.0625 -6.6875 L 2.0625 -4.40625 L 5.140625 -4.40625 L 5.140625 -3.375 L 2.0625 -3.375 L 2.0625 0 Z M 0.953125 0 "/></g></g></g><g fill="#304945" fill-opacity="1"><g transform="translate(193.059561, 191.27555)"><g/></g></g><g fill="#304945" fill-opacity="1"><g transform="translate(204.596647, 191.27555)"><g><path d="M 0.421875 -3.828125 C 0.421875 -4.367188 0.519531 -4.875 0.71875 -5.34375 C 0.914062 -5.820312 1.179688 -6.238281 1.515625 -6.59375 C 1.859375 -6.9375 2.265625 -7.21875 2.734375 -7.4375 C 3.210938 -7.65625 3.710938 -7.765625 4.234375 -7.765625 C 4.816406 -7.765625 5.351562 -7.644531 5.84375 -7.40625 C 6.332031 -7.164062 6.742188 -6.832031 7.078125 -6.40625 C 7.421875 -5.976562 7.671875 -5.472656 7.828125 -4.890625 L 6.71875 -4.890625 C 6.507812 -5.472656 6.179688 -5.914062 5.734375 -6.21875 C 5.296875 -6.519531 4.796875 -6.671875 4.234375 -6.671875 C 3.867188 -6.671875 3.515625 -6.585938 3.171875 -6.421875 C 2.828125 -6.265625 2.53125 -6.0625 2.28125 -5.8125 C 2.039062 -5.5625 1.847656 -5.265625 1.703125 -4.921875 C 1.566406 -4.585938 1.5 -4.222656 1.5 -3.828125 C 1.5 -3.441406 1.566406 -3.082031 1.703125 -2.75 C 1.835938 -2.414062 2.03125 -2.117188 2.28125 -1.859375 C 2.519531 -1.609375 2.8125 -1.410156 3.15625 -1.265625 C 3.507812 -1.117188 3.867188 -1.046875 4.234375 -1.046875 C 4.816406 -1.046875 5.335938 -1.207031 5.796875 -1.53125 C 6.253906 -1.851562 6.582031 -2.300781 6.78125 -2.875 L 7.875 -2.875 C 7.726562 -2.300781 7.484375 -1.789062 7.140625 -1.34375 C 6.796875 -0.90625 6.375 -0.5625 5.875 -0.3125 C 5.382812 -0.0625 4.835938 0.0625 4.234375 0.0625 C 3.710938 0.0625 3.21875 -0.0351562 2.75 -0.234375 C 2.289062 -0.441406 1.890625 -0.722656 1.546875 -1.078125 C 1.222656 -1.429688 0.953125 -1.84375 0.734375 -2.3125 C 0.523438 -2.789062 0.421875 -3.296875 0.421875 -3.828125 Z M 0.421875 -3.828125 "/></g></g></g><g fill="#304945" fill-opacity="1"><g transform="translate(221.684803, 191.27555)"><g><path d="M 0.390625 -3.84375 C 0.390625 -4.40625 0.488281 -4.925781 0.6875 -5.40625 C 0.894531 -5.894531 1.179688 -6.320312 1.546875 -6.6875 C 1.910156 -7.050781 2.332031 -7.335938 2.8125 -7.546875 C 3.300781 -7.753906 3.820312 -7.859375 4.375 -7.859375 C 4.9375 -7.859375 5.457031 -7.753906 5.9375 -7.546875 C 6.425781 -7.335938 6.851562 -7.050781 7.21875 -6.6875 C 7.582031 -6.320312 7.863281 -5.894531 8.0625 -5.40625 C 8.269531 -4.925781 8.375 -4.40625 8.375 -3.84375 C 8.375 -3.289062 8.269531 -2.773438 8.0625 -2.296875 C 7.863281 -1.816406 7.582031 -1.390625 7.21875 -1.015625 C 6.851562 -0.648438 6.425781 -0.363281 5.9375 -0.15625 C 5.457031 0.0390625 4.9375 0.140625 4.375 0.140625 C 3.820312 0.140625 3.300781 0.0390625 2.8125 -0.15625 C 2.332031 -0.363281 1.910156 -0.648438 1.546875 -1.015625 C 1.179688 -1.390625 0.894531 -1.816406 0.6875 -2.296875 C 0.488281 -2.773438 0.390625 -3.289062 0.390625 -3.84375 Z M 1.53125 -3.84375 C 1.53125 -3.320312 1.65625 -2.84375 1.90625 -2.40625 C 2.164062 -1.976562 2.507812 -1.632812 2.9375 -1.375 C 3.375 -1.125 3.851562 -1 4.375 -1 C 4.90625 -1 5.382812 -1.125 5.8125 -1.375 C 6.25 -1.632812 6.59375 -1.976562 6.84375 -2.40625 C 7.101562 -2.84375 7.234375 -3.320312 7.234375 -3.84375 C 7.234375 -4.375 7.101562 -4.851562 6.84375 -5.28125 C 6.59375 -5.71875 6.25 -6.0625 5.8125 -6.3125 C 5.382812 -6.570312 4.90625 -6.703125 4.375 -6.703125 C 3.851562 -6.703125 3.375 -6.570312 2.9375 -6.3125 C 2.507812 -6.0625 2.164062 -5.71875 1.90625 -5.28125 C 1.65625 -4.851562 1.53125 -4.375 1.53125 -3.84375 Z M 1.53125 -3.84375 "/></g></g></g><g fill="#304945" fill-opacity="1"><g transform="translate(239.322574, 191.27555)"><g><path d="M 3.703125 -7.765625 C 4.335938 -7.765625 4.890625 -7.648438 5.359375 -7.421875 C 5.835938 -7.203125 6.234375 -6.90625 6.546875 -6.53125 C 6.859375 -6.15625 7.09375 -5.734375 7.25 -5.265625 C 7.40625 -4.796875 7.484375 -4.320312 7.484375 -3.84375 C 7.484375 -3.351562 7.40625 -2.878906 7.25 -2.421875 C 7.09375 -1.972656 6.859375 -1.566406 6.546875 -1.203125 C 6.234375 -0.835938 5.835938 -0.546875 5.359375 -0.328125 C 4.890625 -0.109375 4.335938 0 3.703125 0 L 0.953125 0 L 0.953125 -7.765625 Z M 3.703125 -1.109375 C 4.296875 -1.109375 4.789062 -1.238281 5.1875 -1.5 C 5.59375 -1.769531 5.894531 -2.113281 6.09375 -2.53125 C 6.289062 -2.945312 6.390625 -3.382812 6.390625 -3.84375 C 6.390625 -4.1875 6.332031 -4.519531 6.21875 -4.84375 C 6.101562 -5.175781 5.929688 -5.476562 5.703125 -5.75 C 5.484375 -6.03125 5.207031 -6.25 4.875 -6.40625 C 4.539062 -6.570312 4.148438 -6.65625 3.703125 -6.65625 L 2.0625 -6.65625 L 2.0625 -1.109375 Z M 3.703125 -1.109375 "/></g></g></g><g fill="#304945" fill-opacity="1"><g transform="translate(256.091967, 191.27555)"><g><path d="M 5.640625 -1.109375 L 5.640625 0 L 0.953125 0 L 0.953125 -7.78125 L 5.625 -7.78125 L 5.625 -6.671875 L 2.0625 -6.671875 L 2.0625 -4.5 L 5.5625 -4.5 L 5.5625 -3.375 L 2.0625 -3.375 L 2.0625 -1.109375 Z M 5.640625 -1.109375 "/></g></g></g><g fill="#304945" fill-opacity="1"><g transform="translate(271.025659, 191.27555)"><g><path d="M 3.75 -3.90625 C 4.0625 -3.90625 4.320312 -3.96875 4.53125 -4.09375 C 4.738281 -4.226562 4.890625 -4.398438 4.984375 -4.609375 C 5.085938 -4.816406 5.140625 -5.03125 5.140625 -5.25 C 5.140625 -5.46875 5.085938 -5.6875 4.984375 -5.90625 C 4.890625 -6.125 4.738281 -6.304688 4.53125 -6.453125 C 4.320312 -6.597656 4.0625 -6.671875 3.75 -6.671875 L 2.046875 -6.671875 L 2.046875 0 L 0.953125 0 L 0.953125 -7.796875 L 3.75 -7.796875 C 4.164062 -7.796875 4.53125 -7.71875 4.84375 -7.5625 C 5.164062 -7.414062 5.429688 -7.21875 5.640625 -6.96875 C 5.847656 -6.726562 6.003906 -6.457031 6.109375 -6.15625 C 6.210938 -5.851562 6.265625 -5.550781 6.265625 -5.25 C 6.265625 -4.882812 6.1875 -4.535156 6.03125 -4.203125 C 5.882812 -3.867188 5.660156 -3.585938 5.359375 -3.359375 C 5.066406 -3.128906 4.703125 -2.972656 4.265625 -2.890625 L 6.703125 0 L 5.265625 0 L 2.453125 -3.375 L 2.453125 -3.90625 Z M 3.75 -3.90625 "/></g></g></g></svg>